<?xml version="1.0" encoding="UTF-8" standalone="no"?>
<!-- Created with Inkscape (http://www.inkscape.org/) -->

<svg
   width="89.999863mm"
   height="50.000156mm"
   viewBox="0 0 89.999863 50.000156"
   version="1.1"
   id="svg1"
   xml:space="preserve"
   xmlns:inkscape="http://www.inkscape.org/namespaces/inkscape"
   xmlns:sodipodi="http://sodipodi.sourceforge.net/DTD/sodipodi-0.dtd"
   xmlns="http://www.w3.org/2000/svg"
   xmlns:svg="http://www.w3.org/2000/svg"><sodipodi:namedview
     id="namedview1"
     pagecolor="#ffffff"
     bordercolor="#000000"
     borderopacity="0.25"
     inkscape:showpageshadow="2"
     inkscape:pageopacity="0.0"
     inkscape:pagecheckerboard="0"
     inkscape:deskcolor="#d1d1d1"
     inkscape:document-units="mm"><inkscape:page
       x="-1.1927654e-05"
       y="0"
       width="89.999863"
       height="50.000156"
       id="page2"
       margin="26.30736 7.1560001 30.158667 5.3333335"
       bleed="7.5590401 7.5599999 7.5586667 7.5590401"
       inkscape:export-filename="Logo PacerTime.svg"
       inkscape:export-xdpi="96"
       inkscape:export-ydpi="96" /></sodipodi:namedview><defs
     id="defs1"><clipPath
       clipPathUnits="userSpaceOnUse"
       id="clipPath2"><path
         d="M 0,153.071 H 266.457 V 0 H 0 Z"
         transform="translate(-31.073601,-85.237002)"
         id="path2" /></clipPath><clipPath
       clipPathUnits="userSpaceOnUse"
       id="clipPath4"><path
         d="M 0,153.071 H 266.457 V 0 H 0 Z"
         transform="translate(-61.777702,-71.040299)"
         id="path4" /></clipPath><clipPath
       clipPathUnits="userSpaceOnUse"
       id="clipPath6"><path
         d="M 0,153.071 H 266.457 V 0 H 0 Z"
         transform="translate(-94.127305,-68.112502)"
         id="path6" /></clipPath><clipPath
       clipPathUnits="userSpaceOnUse"
       id="clipPath8"><path
         d="M 0,153.071 H 266.457 V 0 H 0 Z"
         transform="translate(-113.8861,-77.547602)"
         id="path8" /></clipPath><clipPath
       clipPathUnits="userSpaceOnUse"
       id="clipPath10"><path
         d="M 0,153.071 H 266.457 V 0 H 0 Z"
         transform="translate(-148.41051,-83.893302)"
         id="path10" /></clipPath><clipPath
       clipPathUnits="userSpaceOnUse"
       id="clipPath12"><path
         d="M 0,153.071 H 266.457 V 0 H 0 Z"
         id="path12" /></clipPath><clipPath
       clipPathUnits="userSpaceOnUse"
       id="clipPath14"><path
         d="M 0,153.071 H 266.457 V 0 H 0 Z"
         transform="translate(-211.6966,-55.403504)"
         id="path14" /></clipPath><clipPath
       clipPathUnits="userSpaceOnUse"
       id="clipPath16"><path
         d="M 0,153.071 H 266.457 V 0 H 0 Z"
         transform="translate(-235.14391,-42.712101)"
         id="path16" /></clipPath><clipPath
       clipPathUnits="userSpaceOnUse"
       id="clipPath17"><path
         d="M 161.579,124.783 H 255.42 V 66.2177 h -93.841 z"
         transform="translate(-184.49841,-101.8625)"
         id="path17" /></clipPath><clipPath
       clipPathUnits="userSpaceOnUse"
       id="clipPath18"><path
         d="M 161.579,124.783 H 255.42 V 66.2177 h -93.841 z"
         transform="translate(-248.00431,-92.660902)"
         id="path18" /></clipPath><clipPath
       clipPathUnits="userSpaceOnUse"
       id="clipPath21"><path
         d="M 0,153.071 H 266.457 V 0 H 0 Z"
         transform="matrix(1.3333333,0,0,-1.3333333,-7.55904,196.53563)"
         id="path21" /></clipPath></defs><g
     id="layer-MC0"
     inkscape:groupmode="layer"
     inkscape:label="Layer 1"
     transform="matrix(0.26458333,0,0,0.26458334,4.9379573e-6,0)"><path
       id="path1"
       d="m 0,0 c 0,-1.611 -0.575,-2.963 -1.722,-4.057 -1.147,-1.094 -2.761,-1.641 -4.84,-1.641 h -6.56 v 11.51 h 6.4 c 2.079,0 3.718,-0.486 4.919,-1.454 C -0.602,3.392 0,1.974 0,0.109 Z m 4.542,9.68 c -1.235,1.147 -2.741,2.035 -4.516,2.665 -1.774,0.626 -3.792,0.941 -6.05,0.941 h -15.38 v -37.645 h 8.282 v 11.291 h 6.291 c 2.116,0 4.096,0.28 5.943,0.836 1.846,0.556 3.459,1.388 4.84,2.499 1.379,1.111 2.464,2.494 3.254,4.144 0.788,1.646 1.181,3.567 1.181,5.751 v 0.109 c 0,1.935 -0.33,3.703 -0.993,5.295 C 6.729,7.164 5.781,8.534 4.542,9.68"
       style="fill:#100f0d;fill-opacity:1;fill-rule:nonzero;stroke:none"
       transform="matrix(1.3333333,0,0,-1.3333333,33.872427,82.886293)"
       clip-path="url(#clipPath2)" /><path
       id="path3"
       d="m 0,0 c 0,-1.506 -0.582,-2.722 -1.746,-3.654 -1.169,-0.933 -2.718,-1.401 -4.652,-1.401 -1.331,0 -2.403,0.307 -3.23,0.915 -0.823,0.608 -1.234,1.47 -1.234,2.582 v 0.11 c 0,1.291 0.499,2.275 1.506,2.953 1.002,0.683 2.38,1.024 4.14,1.024 1.002,0 1.943,-0.1 2.822,-0.298 C -1.514,2.035 -0.718,1.776 0,1.453 Z m -5.107,18.984 c -2.442,0 -4.521,-0.214 -6.241,-0.643 -1.719,-0.433 -3.369,-0.989 -4.945,-1.668 l 2.044,-6.24 c 1.326,0.503 2.586,0.888 3.79,1.155 1.199,0.272 2.59,0.407 4.166,0.407 2.043,0 3.584,-0.451 4.626,-1.348 1.037,-0.892 1.558,-2.201 1.558,-3.925 V 6.241 c -1.037,0.358 -2.105,0.643 -3.2,0.857 -1.093,0.219 -2.376,0.324 -3.842,0.324 -1.724,0 -3.291,-0.188 -4.709,-0.565 -1.413,-0.376 -2.634,-0.94 -3.654,-1.693 -1.024,-0.753 -1.82,-1.702 -2.394,-2.849 -0.573,-1.147 -0.862,-2.512 -0.862,-4.087 v -0.11 c 0,-1.431 0.263,-2.696 0.784,-3.79 0.516,-1.094 1.225,-2.017 2.122,-2.77 0.897,-0.752 1.943,-1.317 3.147,-1.694 1.198,-0.376 2.481,-0.564 3.842,-0.564 2.009,0 3.711,0.333 5.111,0.993 1.396,0.665 2.6,1.554 3.602,2.665 v -3.12 H 7.742 V 6.564 c 0,3.904 -1.02,6.954 -3.064,9.143 -2.043,2.183 -5.308,3.277 -9.785,3.277"
       style="fill:#100f0d;fill-opacity:1;fill-rule:nonzero;stroke:none"
       transform="matrix(1.3333333,0,0,-1.3333333,74.811227,101.81523)"
       clip-path="url(#clipPath4)" /><path
       id="path5"
       d="m 0,0 c -1.024,-0.556 -2.214,-0.836 -3.58,-0.836 -1.111,0 -2.113,0.206 -3.011,0.621 -0.897,0.412 -1.667,0.977 -2.31,1.694 -0.648,0.713 -1.138,1.558 -1.479,2.525 -0.342,0.968 -0.513,2.009 -0.513,3.12 v 0.105 c 0,1.077 0.171,2.092 0.513,3.042 0.341,0.95 0.822,1.781 1.452,2.499 0.626,0.718 1.362,1.282 2.206,1.693 0.84,0.412 1.781,0.622 2.823,0.622 1.47,0 2.695,-0.289 3.68,-0.862 0.989,-0.574 1.948,-1.344 2.88,-2.311 l 5.002,5.374 c -1.366,1.506 -2.941,2.692 -4.735,3.549 -1.79,0.863 -4.053,1.291 -6.775,1.291 -2.223,0 -4.258,-0.394 -6.105,-1.181 -1.846,-0.788 -3.431,-1.864 -4.756,-3.226 -1.327,-1.365 -2.368,-2.958 -3.121,-4.787 -0.753,-1.829 -1.129,-3.764 -1.129,-5.808 V 7.015 c 0,-2.043 0.376,-3.969 1.129,-5.781 0.753,-1.807 1.794,-3.387 3.121,-4.731 1.325,-1.343 2.91,-2.411 4.756,-3.199 1.847,-0.787 3.847,-1.181 5.996,-1.181 2.871,0 5.199,0.489 6.993,1.475 1.79,0.988 3.387,2.249 4.788,3.794 L 3.037,2.231 C 2.031,1.3 1.02,0.556 0,0"
       style="fill:#100f0d;fill-opacity:1;fill-rule:nonzero;stroke:none"
       transform="matrix(1.3333333,0,0,-1.3333333,117.94403,105.71896)"
       clip-path="url(#clipPath6)" /><path
       id="path7"
       d="M 0,0 C 0.324,1.864 1.011,3.353 2.07,4.464 3.129,5.576 4.517,6.131 6.236,6.131 7.96,6.131 9.339,5.567 10.381,4.437 11.418,3.309 12.065,1.83 12.315,0 Z m 16.857,7.934 c -1.164,1.453 -2.625,2.608 -4.38,3.466 -1.759,0.863 -3.838,1.291 -6.241,1.291 -2.113,0 -4.039,-0.394 -5.781,-1.181 C -1.282,10.722 -2.779,9.646 -4.035,8.284 -5.287,6.919 -6.267,5.326 -6.962,3.497 -7.663,1.667 -8.013,-0.267 -8.013,-2.311 V -2.42 c 0,-2.223 0.376,-4.241 1.129,-6.048 0.753,-1.812 1.803,-3.378 3.147,-4.704 1.343,-1.327 2.941,-2.351 4.787,-3.069 1.843,-0.713 3.843,-1.071 5.996,-1.071 2.617,0 4.892,0.472 6.827,1.422 1.939,0.949 3.584,2.266 4.95,3.952 l -4.679,4.144 c -1.151,-1.041 -2.258,-1.794 -3.334,-2.262 -1.077,-0.464 -2.293,-0.696 -3.659,-0.696 -1.825,0 -3.361,0.472 -4.595,1.421 -1.239,0.951 -2.053,2.36 -2.447,4.224 h 20.057 c 0.035,0.394 0.062,0.735 0.079,1.02 0.017,0.289 0.03,0.629 0.03,1.024 v 0.105 c 0,2.043 -0.279,4.008 -0.836,5.89 -0.555,1.882 -1.418,3.549 -2.582,5.002"
       style="fill:#100f0d;fill-opacity:1;fill-rule:nonzero;stroke:none"
       transform="matrix(1.3333333,0,0,-1.3333333,144.28909,93.138827)"
       clip-path="url(#clipPath8)" /><path
       id="path9"
       d="m 0,0 v 5.807 h -8.17 v -27.466 h -0.009 v -7.369 h -3.444 v -6.989 h 3.444 v -13.658 c 0,-1.685 0.205,-3.076 0.617,-4.171 0.412,-1.094 0.985,-1.978 1.72,-2.66 0.736,-0.683 1.614,-1.156 2.634,-1.423 1.024,-0.272 2.162,-0.406 3.414,-0.406 1.365,0 2.565,0.152 3.606,0.459 1.038,0.301 1.987,0.709 2.849,1.208 v 6.559 c -1.256,-0.678 -2.599,-1.019 -4.035,-1.019 -1.755,0 -2.635,0.932 -2.635,2.796 v 12.315 h 6.78 v 6.989 h -6.78 v 6.013 H 0 v 10.647 c 0,3.48 0.783,6.04 2.342,7.69 1.557,1.65 3.702,2.472 6.424,2.472 H 9.199 V 6.346 C 6.757,6.455 4.823,5.917 3.392,4.735 1.956,3.549 0.827,1.974 0,0"
       style="fill:#100f0d;fill-opacity:1;fill-rule:nonzero;stroke:none"
       transform="matrix(1.3333333,0,0,-1.3333333,190.32163,84.677893)"
       clip-path="url(#clipPath10)" /><path
       id="path11"
       d="m 161.579,26.043 h 8.175 v 28.822 h -8.175 z"
       style="fill:#efee0e;fill-opacity:1;fill-rule:nonzero;stroke:none"
       transform="matrix(1.3333333,0,0,-1.3333333,-7.55904,196.53563)"
       clip-path="url(#clipPath12)" /><path
       id="path13"
       d="m 0,0 c -1.974,0 -3.729,-0.385 -5.27,-1.164 -1.544,-0.774 -2.94,-1.921 -4.197,-3.44 -0.752,1.484 -1.82,2.618 -3.198,3.414 -1.379,0.792 -3.02,1.19 -4.919,1.19 -1.042,0 -1.982,-0.127 -2.827,-0.381 -0.841,-0.249 -1.602,-0.595 -2.285,-1.028 -0.678,-0.433 -1.299,-0.928 -1.856,-1.487 -0.555,-0.561 -1.067,-1.148 -1.531,-1.76 v 4.118 h -8.175 V -29.36 h 8.175 v 16.039 c 0,1.929 0.437,3.387 1.317,4.372 0.88,0.984 2.087,1.474 3.632,1.474 1.541,0 2.723,-0.49 3.55,-1.474 0.822,-0.985 1.233,-2.443 1.233,-4.372 V -29.36 h 8.175 v 16.039 c 0,1.929 0.439,3.387 1.318,4.372 0.879,0.984 2.087,1.474 3.632,1.474 1.54,0 2.722,-0.49 3.549,-1.474 0.823,-0.985 1.239,-2.443 1.239,-4.372 V -29.36 h 8.17 v 18.769 c 0,3.476 -0.857,6.11 -2.582,7.904 C 5.431,-0.897 3.046,0 0,0"
       style="fill:#efee0e;fill-opacity:1;fill-rule:nonzero;stroke:none"
       transform="matrix(1.3333333,0,0,-1.3333333,274.70309,122.66429)"
       clip-path="url(#clipPath14)" /><path
       id="path15"
       d="M 0,0 C 0.324,1.864 1.012,3.353 2.07,4.464 3.13,5.576 4.517,6.132 6.236,6.132 7.961,6.132 9.34,5.567 10.381,4.437 11.418,3.309 12.065,1.83 12.315,0 Z m 19.44,2.933 c -0.556,1.881 -1.418,3.548 -2.582,5.002 -1.165,1.453 -2.626,2.608 -4.38,3.465 -1.76,0.863 -3.838,1.291 -6.242,1.291 -2.113,0 -4.039,-0.393 -5.78,-1.181 C -1.282,10.723 -2.778,9.646 -4.034,8.284 -5.286,6.919 -6.267,5.326 -6.962,3.497 -7.662,1.668 -8.013,-0.267 -8.013,-2.311 V -2.42 c 0,-2.223 0.377,-4.24 1.129,-6.048 0.753,-1.811 1.804,-3.379 3.147,-4.704 1.343,-1.326 2.941,-2.35 4.788,-3.068 1.843,-0.713 3.843,-1.072 5.995,-1.072 2.617,0 4.893,0.472 6.827,1.422 1.939,0.95 3.584,2.267 4.95,3.952 l -4.678,4.144 c -1.151,-1.041 -2.258,-1.794 -3.335,-2.263 -1.077,-0.464 -2.293,-0.695 -3.659,-0.695 -1.825,0 -3.361,0.473 -4.594,1.422 -1.24,0.95 -2.053,2.359 -2.447,4.224 h 20.056 c 0.035,0.393 0.062,0.734 0.079,1.019 0.018,0.289 0.03,0.63 0.03,1.024 v 0.105 c 0,2.044 -0.279,4.009 -0.835,5.891"
       style="fill:#efee0e;fill-opacity:1;fill-rule:nonzero;stroke:none"
       transform="matrix(1.3333333,0,0,-1.3333333,305.96616,139.58616)"
       clip-path="url(#clipPath16)" /><g
       id="g20"
       clip-path="url(#clipPath21)"><path
         d="m 0,0 v 0 c 8.036,8.04 18.725,12.471 30.097,12.471 11.369,0 22.057,-4.431 30.09,-12.471 1.025,-1.014 2.36,-1.529 3.699,-1.529 1.339,0 2.674,0.515 3.691,1.529 2.044,2.043 2.044,5.355 0,7.391 -10.008,10.012 -23.321,15.53 -37.48,15.53 -14.162,0 -27.475,-5.518 -37.488,-15.523 V 7.391 c -10.011,-10.012 -15.528,-23.322 -15.528,-37.484 0,-2.888 2.339,-5.228 5.228,-5.228 2.885,0 5.227,2.34 5.227,5.228 0,11.365 4.426,22.054 12.464,30.093"
         style="fill:#efee0e;fill-opacity:1;fill-rule:nonzero;stroke:none"
         transform="matrix(1.3333333,0,0,-1.3333333,238.43883,60.71896)"
         clip-path="url(#clipPath17)"
         id="path19" /><path
         d="m 0,0 -33.716,-15.529 -24.561,9.737 c -2.681,1.057 -5.718,-0.254 -6.782,-2.937 -1.064,-2.686 0.246,-5.722 2.931,-6.787 l 26.641,-10.554 c 0.158,-0.07 0.317,-0.127 0.475,-0.169 h 0.003 c 0.216,-0.056 0.427,-0.105 0.642,-0.14 0.053,-0.008 0.099,-0.015 0.151,-0.015 0.219,-0.028 0.437,-0.049 0.655,-0.049 h 0.004 c 0.229,0 0.462,0.021 0.695,0.049 0.055,0.007 0.112,0.021 0.175,0.028 0.176,0.028 0.36,0.071 0.54,0.127 0.052,0.014 0.105,0.021 0.155,0.042 0.211,0.064 0.419,0.141 0.616,0.233 L 4.375,-9.491 c 2.621,1.212 3.77,4.312 2.558,6.933 C 5.724,0.07 2.621,1.212 0,0"
         style="fill:#100f0d;fill-opacity:1;fill-rule:nonzero;stroke:none"
         transform="matrix(1.3333333,0,0,-1.3333333,323.11336,72.98776)"
         clip-path="url(#clipPath18)"
         id="path20" /></g></g></svg>
